<svg xmlns="http://www.w3.org/2000/svg" version="1.0" viewBox="0.00 0.00 180.00 180.00">
<g stroke-width="2.00" fill="none" stroke-linecap="butt">
<path stroke="#91aac4" vector-effect="non-scaling-stroke" d="
  M 131.22 74.01
  C 126.54 47.54 106.98 32.29 80.50 31.97
  Q 64.13 31.77 48.02 31.86
  A 0.41 0.41 0.0 0 0 47.61 32.27
  L 47.60 148.00
  Q 47.60 148.46 48.06 148.46
  Q 63.29 148.53 78.75 148.54
  C 122.40 148.56 137.91 111.86 131.22 74.01"
/>
<path stroke="#91aac4" vector-effect="non-scaling-stroke" d="
  M 65.69 133.60
  C 74.27 134.02 83.88 133.98 91.55 131.35
  C 116.00 122.99 117.91 91.43 112.02 70.27
  C 108.05 56.01 96.43 48.54 82.26 46.90
  Q 77.44 46.34 65.71 46.85
  Q 65.13 46.87 65.13 47.45
  L 65.14 133.01
  Q 65.14 133.57 65.69 133.60"
/>
</g>
<path fill="#225588" d="
  M 16.37 0.00
  L 163.75 0.00
  Q 177.51 2.38 180.00 16.13
  L 180.00 163.78
  Q 177.61 177.50 163.87 180.00
  L 16.01 180.00
  Q 2.28 177.41 0.00 163.68
  L 0.00 16.01
  Q 2.61 2.25 16.37 0.00
  Z
  M 131.22 74.01
  C 126.54 47.54 106.98 32.29 80.50 31.97
  Q 64.13 31.77 48.02 31.86
  A 0.41 0.41 0.0 0 0 47.61 32.27
  L 47.60 148.00
  Q 47.60 148.46 48.06 148.46
  Q 63.29 148.53 78.75 148.54
  C 122.40 148.56 137.91 111.86 131.22 74.01
  Z"
/>
<path fill="#ffffff" d="
  M 80.50 31.97
  C 106.98 32.29 126.54 47.54 131.22 74.01
  C 137.91 111.86 122.40 148.56 78.75 148.54
  Q 63.29 148.53 48.06 148.46
  Q 47.60 148.46 47.60 148.00
  L 47.61 32.27
  A 0.41 0.41 0.0 0 1 48.02 31.86
  Q 64.13 31.77 80.50 31.97
  Z
  M 65.69 133.60
  C 74.27 134.02 83.88 133.98 91.55 131.35
  C 116.00 122.99 117.91 91.43 112.02 70.27
  C 108.05 56.01 96.43 48.54 82.26 46.90
  Q 77.44 46.34 65.71 46.85
  Q 65.13 46.87 65.13 47.45
  L 65.14 133.01
  Q 65.14 133.57 65.69 133.60
  Z"
/>
<path fill="#225588" d="
  M 65.69 133.60
  Q 65.14 133.57 65.14 133.01
  L 65.13 47.45
  Q 65.13 46.87 65.71 46.85
  Q 77.44 46.34 82.26 46.90
  C 96.43 48.54 108.05 56.01 112.02 70.27
  C 117.91 91.43 116.00 122.99 91.55 131.35
  C 83.88 133.98 74.27 134.02 65.69 133.60
  Z"
/>
</svg>
